<svg width="28" height="28" viewBox="0 0 28 28" fill="none" xmlns="http://www.w3.org/2000/svg" fill='white'>
<path d="M14.8167 5.48334C15.0306 5.69723 15.1426 5.96945 15.1527 6.3C15.1628 6.63056 15.0605 6.90278 14.8458 7.11667L9.12917 12.8333L22.1667 12.8333C22.4972 12.8333 22.7745 12.9453 22.9985 13.1693C23.2225 13.3933 23.3341 13.6702 23.3333 14C23.3333 14.3306 23.2213 14.6078 22.9973 14.8318C22.7733 15.0558 22.4964 15.1674 22.1667 15.1667L9.12917 15.1667L14.8458 20.8833C15.0597 21.0972 15.162 21.3694 15.1527 21.7C15.1433 22.0306 15.0313 22.3028 14.8167 22.5167C14.6028 22.7306 14.3306 22.8375 14 22.8375C13.6694 22.8375 13.3972 22.7306 13.1833 22.5167L5.48333 14.8167C5.36667 14.7194 5.28383 14.5977 5.23483 14.4515C5.18583 14.3053 5.16172 14.1548 5.1625 14C5.1625 13.8444 5.18661 13.6986 5.23483 13.5625C5.28306 13.4264 5.36589 13.3 5.48333 13.1833L13.1833 5.48334C13.3972 5.26945 13.6694 5.1625 14 5.1625C14.3306 5.1625 14.6028 5.26945 14.8167 5.48334Z"/>
</svg>
