<svg width="349" height="427" viewBox="0 0 349 427" fill="none" xmlns="http://www.w3.org/2000/svg">
<path d="M249.5 2.5H301C325.853 2.5 346 22.6472 346 47.5V114" stroke="white" stroke-width="5" stroke-linejoin="round"/>
<circle cx="249.5" cy="2.5" r="2.5" fill="#F8F8F8"/>
<circle cx="346" cy="114" r="2.5" fill="#F8F8F8"/>
<path d="M99.0001 2.5L47.5001 2.5C22.6473 2.5 2.50007 22.6472 2.50007 47.5V114" stroke="white" stroke-width="5" stroke-linejoin="round"/>
<circle cx="2.5" cy="2.5" r="2.5" transform="matrix(-1 0 0 1 101.5 0)" fill="#F8F8F8"/>
<circle cx="2.5" cy="2.5" r="2.5" transform="matrix(-1 0 0 1 4.99994 111.5)" fill="#F8F8F8"/>
<path d="M248.5 424H300C324.853 424 345 403.853 345 379V312.5" stroke="white" stroke-width="5" stroke-linejoin="round"/>
<circle cx="2.5" cy="2.5" r="2.5" transform="matrix(1 0 0 -1 246 426.5)" fill="#F8F8F8"/>
<circle cx="2.5" cy="2.5" r="2.5" transform="matrix(1 0 0 -1 342.5 315)" fill="#F8F8F8"/>
<path d="M99 424H47.5C22.6472 424 2.50001 403.853 2.50001 379V312.5" stroke="white" stroke-width="5" stroke-linejoin="round"/>
<circle cx="99" cy="424" r="2.5" transform="rotate(180 99 424)" fill="#F8F8F8"/>
<circle cx="2.49988" cy="312.5" r="2.5" transform="rotate(180 2.49988 312.5)" fill="#F8F8F8"/>
</svg>
