<svg width="46" height="46" viewBox="0 0 46 46" fill="none" xmlns="http://www.w3.org/2000/svg">
<path d="M21.0833 38.3333H12.4583C9.55135 38.3333 7.06735 37.3271 5.00629 35.3146C2.94524 33.3021 1.91535 30.8424 1.91663 27.9354C1.91663 25.4437 2.66732 23.2236 4.16871 21.275C5.6701 19.3264 7.63468 18.0805 10.0625 17.5375C10.8611 14.5986 12.4583 12.2187 14.8541 10.3979C17.25 8.57707 19.9652 7.66666 23 7.66666C26.7375 7.66666 29.9083 8.96871 32.5124 11.5728C35.1165 14.1769 36.4179 17.3471 36.4166 21.0833C38.6208 21.3389 40.4499 22.2895 41.904 23.9353C43.3582 25.5811 44.0846 27.5054 44.0833 29.7083C44.0833 32.1042 43.2444 34.1409 41.5667 35.8187C39.889 37.4964 37.8528 38.3346 35.4583 38.3333H24.9166V24.6292L27.9833 27.6L30.6666 24.9167L23 17.25L15.3333 24.9167L18.0166 27.6L21.0833 24.6292V38.3333Z" fill="#498553"/>
</svg>
