<svg width="100" height="100" viewBox="0 0 100 100" fill="none" xmlns="http://www.w3.org/2000/svg">
<path fill-rule="evenodd" clip-rule="evenodd" d="M49.6667 91.3333C30.025 91.3333 20.2042 91.3333 14.1 85.2292C8 79.1333 8 69.3083 8 49.6667C8 30.025 8 20.2042 14.1 14.1C20.2083 8 30.025 8 49.6667 8C69.3083 8 79.1292 8 85.2292 14.1C91.3333 20.2083 91.3333 30.025 91.3333 49.6667C91.3333 69.3083 91.3333 79.1292 85.2292 85.2292C79.1333 91.3333 69.3083 91.3333 49.6667 91.3333ZM37.0417 37.0417C37.6276 36.4565 38.4219 36.1278 39.25 36.1278C40.0781 36.1278 40.8724 36.4565 41.4583 37.0417L49.6667 45.25L57.875 37.0417C58.4674 36.4897 59.2509 36.1892 60.0605 36.2034C60.8701 36.2177 61.6425 36.5457 62.2151 37.1182C62.7876 37.6908 63.1156 38.4632 63.1299 39.2728C63.1442 40.0824 62.8437 40.8659 62.2917 41.4583L54.0833 49.6667L62.2917 57.875C62.5987 58.1611 62.845 58.5061 63.0158 58.8894C63.1866 59.2728 63.2784 59.6866 63.2858 60.1062C63.2932 60.5258 63.216 60.9425 63.0588 61.3317C62.9017 61.7208 62.6677 62.0743 62.371 62.371C62.0743 62.6677 61.7208 62.9017 61.3317 63.0588C60.9425 63.216 60.5258 63.2932 60.1062 63.2858C59.6866 63.2784 59.2728 63.1866 58.8894 63.0158C58.5061 62.845 58.1611 62.5987 57.875 62.2917L49.6667 54.0833L41.4583 62.2917C41.1722 62.5987 40.8272 62.845 40.4439 63.0158C40.0606 63.1866 39.6468 63.2784 39.2272 63.2858C38.8076 63.2932 38.3908 63.216 38.0017 63.0588C37.6126 62.9017 37.2591 62.6677 36.9623 62.371C36.6656 62.0743 36.4317 61.7208 36.2745 61.3317C36.1173 60.9425 36.0401 60.5258 36.0475 60.1062C36.0549 59.6866 36.1468 59.2728 36.3176 58.8894C36.4884 58.5061 36.7346 58.1611 37.0417 57.875L45.25 49.6667L37.0417 41.4583C36.4565 40.8724 36.1278 40.0781 36.1278 39.25C36.1278 38.4219 36.4565 37.6276 37.0417 37.0417Z"/>
</svg>
