<svg width="301" height="247" viewBox="0 0 301 247" fill="none" xmlns="http://www.w3.org/2000/svg">
<rect y="46.4241" width="180" height="147" rx="26" transform="rotate(-12 0 46.4241)" fill="#EAEEF1"/>
<g clip-path="url(#clip0_126_495)">
<rect x="94.2283" y="29.1093" width="190.106" height="162.847" rx="26" transform="rotate(8 94.2283 29.1093)" fill="white"/>
<path d="M255.949 51.6358L121.024 32.6735C113.869 31.6758 106.61 33.5574 100.84 37.9053C95.07 42.2533 91.2605 48.7125 90.2472 55.8659L75.0773 163.805C74.0797 170.961 75.9612 178.22 80.3092 183.99C84.6571 189.76 91.1164 193.569 98.2697 194.582L233.194 213.545C240.349 214.542 247.608 212.661 253.378 208.313C259.148 203.965 262.958 197.506 263.971 190.352L279.141 82.4131C280.139 75.2576 278.257 67.9985 273.909 62.2286C269.561 56.4587 263.102 52.6491 255.949 51.6358ZM218.425 73.8801C222.428 74.4426 226.174 76.1795 229.19 78.8711C232.205 81.5627 234.355 85.0881 235.367 89.0015C236.379 92.9149 236.208 97.0406 234.876 100.857C233.543 104.673 231.108 108.008 227.88 110.441C224.652 112.873 220.775 114.294 216.739 114.523C212.704 114.752 208.691 113.78 205.208 111.728C201.725 109.677 198.929 106.638 197.173 102.998C195.417 99.3569 194.78 95.2771 195.342 91.2743C196.102 85.9092 198.959 81.0646 203.286 77.8036C207.614 74.5426 213.058 73.1315 218.425 73.8801ZM100.166 181.09C96.5875 180.587 93.3554 178.683 91.1807 175.797C89.006 172.911 88.0668 169.28 88.5697 165.701L92.5773 137.186L137.561 107.262C141.9 104.382 147.174 103.265 152.307 104.139C157.441 105.012 162.049 107.81 165.192 111.962L188.737 143.137L132.366 185.615L100.166 181.09ZM250.479 188.456C249.976 192.035 248.072 195.267 245.186 197.441C242.3 199.616 238.668 200.555 235.09 200.052L151.45 188.297L209.84 144.297C213.898 141.724 218.736 140.672 223.496 141.329C228.256 141.985 232.629 144.307 235.839 147.882L253.451 167.307L250.479 188.456Z" fill="#C3CDD1"/>
</g>
<defs>
<clipPath id="clip0_126_495">
<rect width="218" height="218" fill="white" transform="translate(84.3397) rotate(8)"/>
</clipPath>
</defs>
</svg>
